<?xml version="1.0" encoding="UTF-8" standalone="no"?>
<!-- Created with Inkscape (http://www.inkscape.org/) -->

<svg
   width="128"
   height="128"
   id="svg2"
   sodipodi:version="0.32"
   inkscape:version="1.3.2 (091e20e, 2023-11-25, custom)"
   version="1.0"
   sodipodi:docname="amenity_restaurant.svg"
   inkscape:output_extension="org.inkscape.output.svg.inkscape"
   xmlns:inkscape="http://www.inkscape.org/namespaces/inkscape"
   xmlns:sodipodi="http://sodipodi.sourceforge.net/DTD/sodipodi-0.dtd"
   xmlns="http://www.w3.org/2000/svg"
   xmlns:svg="http://www.w3.org/2000/svg"
   xmlns:rdf="http://www.w3.org/1999/02/22-rdf-syntax-ns#"
   xmlns:cc="http://creativecommons.org/ns#"
   xmlns:dc="http://purl.org/dc/elements/1.1/">
  <metadata
     id="metadata10">
    <rdf:RDF>
      <cc:Work
         rdf:about="">
        <dc:format>image/svg+xml</dc:format>
        <dc:type
           rdf:resource="http://purl.org/dc/dcmitype/StillImage" />
        <cc:license
           rdf:resource="http://web.resource.org/cc/PublicDomain" />
      </cc:Work>
      <cc:License
         rdf:about="http://web.resource.org/cc/PublicDomain">
        <cc:permits
           rdf:resource="http://web.resource.org/cc/Reproduction" />
        <cc:permits
           rdf:resource="http://web.resource.org/cc/Distribution" />
        <cc:permits
           rdf:resource="http://web.resource.org/cc/DerivativeWorks" />
      </cc:License>
    </rdf:RDF>
  </metadata>
  <sodipodi:namedview
     inkscape:window-height="844"
     inkscape:window-width="1440"
     inkscape:pageshadow="2"
     inkscape:pageopacity="0.0"
     guidetolerance="10.0"
     gridtolerance="20"
     objecttolerance="10.0"
     borderopacity="1.0"
     bordercolor="#666666"
     pagecolor="#ffffff"
     id="base"
     showgrid="true"
     inkscape:zoom="2.8875"
     inkscape:cx="73.419913"
     inkscape:cy="85.887446"
     inkscape:window-x="0"
     inkscape:window-y="22"
     inkscape:current-layer="svg2"
     inkscape:showpageshadow="0"
     inkscape:pagecheckerboard="1"
     inkscape:deskcolor="#d1d1d1"
     inkscape:window-maximized="0">
    <inkscape:grid
       type="xygrid"
       id="grid2383"
       visible="true"
       enabled="true"
       originx="1.9694684e-32"
       originy="1.9694684e-32"
       spacingy="1"
       spacingx="1"
       units="px" />
  </sodipodi:namedview>
  <defs
     id="defs4">
    <inkscape:perspective
       sodipodi:type="inkscape:persp3d"
       inkscape:vp_x="0 : 418.18109 : 1"
       inkscape:vp_y="0 : 1000 : 0"
       inkscape:vp_z="744.09448 : 418.18109 : 1"
       inkscape:persp3d-origin="372.04724 : 242.78739 : 1"
       id="perspective10" />
    <inkscape:perspective
       id="perspective2461"
       inkscape:persp3d-origin="10 : -101.33333 : 1"
       inkscape:vp_z="20 : -98 : 1"
       inkscape:vp_y="0 : 1000 : 0"
       inkscape:vp_x="0 : -98 : 1"
       sodipodi:type="inkscape:persp3d" />
    <inkscape:perspective
       id="perspective2466"
       inkscape:persp3d-origin="400 : 92 : 1"
       inkscape:vp_z="800 : 192 : 1"
       inkscape:vp_y="0 : 1000 : 0"
       inkscape:vp_x="0 : 192 : 1"
       sodipodi:type="inkscape:persp3d" />
  </defs>
  <g
     id="g1"
     transform="matrix(6.4018502,0,0,6.3986496,-3.8957335e-6,1.8937913e-6)">
    <rect
       style="fill:#ffffff;fill-opacity:1;stroke:#000000;stroke-opacity:1"
       id="background"
       width="19"
       height="19"
       x="0.5"
       y="0.5"
       rx="2"
       ry="2" />
    <path
       id="path2453"
       d="m 12.513304,4.686131 c -0.70697,0.7073233 -1.413941,1.4142938 -0.70697,2.1212643 -0.693212,0.6935649 -5.7460758,5.7460747 -7.7784398,7.7784387 -0.70697,0.707324 -1.413941,1.414294 -0.706617,2.121265 0.707323,0.70697 1.413588,3.52e-4 2.120911,-0.706971 1.414294,-1.414294 6.3641458,-6.3637917 7.7780868,-7.7784388 0.707323,0.7073233 1.406533,-0.00706 2.113856,-0.7140262 l 2.54848,-2.5410721 3.53e-4,-3.528e-4 c 0.156282,-0.1566342 0.155929,-0.4106356 -3.53e-4,-0.566917 -0.156281,-0.1559286 -0.410282,-0.1566342 -0.566564,0 h -3.52e-4 l -2.261318,2.2616707 c -0.156282,0.1562814 -0.410636,0.1562814 -0.566917,0 -0.156282,-0.1562814 -0.156282,-0.4106356 0,-0.566917 l 2.261318,-2.2616707 v 0 c 0.156634,-0.1566342 0.156281,-0.4106355 0,-0.566917 C 16.592496,3.1092057 16.338495,3.108853 16.181861,3.2651344 v 3.527e-4 l -2.261318,2.2616707 c -0.156635,0.1562814 -0.410636,0.1559286 -0.566917,-3.528e-4 -0.156282,-0.1562814 -0.156282,-0.4102828 0,-0.566917 l 2.261318,-2.2613178 v -3.528e-4 c 0.156281,-0.1562814 0.156281,-0.4106356 0,-0.566917 -0.156282,-0.1562814 -0.410636,-0.1562814 -0.566917,0 v 0 z" />
    <path
       id="path2455"
       d="m 4.6864193,7.5144301 c 0.706971,0.7073233 1.414294,1.4142938 2.121265,0.7073233 0.693212,0.6935648 5.7457227,5.7457216 7.7784387,7.7784386 0.706971,0.706971 1.413941,1.413941 2.120912,0.706971 0.70697,-0.707677 7.05e-4,-1.413941 -0.706971,-2.121265 C 14.586123,13.171604 9.6362713,8.2217534 8.2219783,6.8074595 8.9293013,6.100489 8.2145693,5.4005741 7.5075993,4.6936036 c 0,0 -2.831763,-2.8250599 -4.242529,-1.4142938 -1.410766,1.410766 1.421349,4.2351203 1.421349,4.2351203 z" />
  </g>
</svg>
