<?xml version="1.0" encoding="utf-8"?>
<!-- Generator: Adobe Illustrator 17.0.0, SVG Export Plug-In . SVG Version: 6.00 Build 0)  -->
<!DOCTYPE svg PUBLIC "-//W3C//DTD SVG 1.1//EN" "http://www.w3.org/Graphics/SVG/1.1/DTD/svg11.dtd">
<svg version="1.1"
	 id="svg8" xmlns:cc="http://creativecommons.org/ns#" xmlns:dc="http://purl.org/dc/elements/1.1/" xmlns:rdf="http://www.w3.org/1999/02/22-rdf-syntax-ns#" xmlns:svg="http://www.w3.org/2000/svg"
	 xmlns="http://www.w3.org/2000/svg" xmlns:xlink="http://www.w3.org/1999/xlink" x="0px" y="0px" width="128px" height="128px"
	 viewBox="0 0 14 14" enable-background="new 0 0 14 14" xml:space="preserve">
<g id="layer1" transform="matrix(0.71428572,0,0,1,0.52916667,-293.29582)">
	<polygon id="rect53" fill="#B40000" points="2.059,297.296 16.059,297.296 16.059,297.296 16.059,298.296 16.059,298.296 
		2.059,298.296 2.059,298.296 2.059,297.296 	"/>
	<polygon id="rect55" fill="#3F3F3F" points="2.059,299.296 16.059,299.296 16.059,299.296 16.059,300.296 16.059,300.296 
		2.059,300.296 2.059,300.296 2.059,299.296 	"/>
	<polygon id="rect57" fill="#3F3F3F" points="2.059,301.296 16.059,301.296 16.059,301.296 16.059,302.296 16.059,302.296 
		2.059,302.296 2.059,302.296 2.059,301.296 	"/>
	<polygon id="rect57-6" fill="#B40000" points="2.059,303.296 16.059,303.296 16.059,303.296 16.059,304.296 16.059,304.296 
		2.059,304.296 2.059,304.296 2.059,303.296 	"/>
</g>
</svg>
