<svg xmlns="http://www.w3.org/2000/svg" version="1.1" xmlns:xlink="http://www.w3.org/1999/xlink" width="128" height="128" x="0" y="0" viewBox="0 0 512 512" style="enable-background:new 0 0 512 512" xml:space="preserve" class=""><g><path fill="#da4a54" d="M208.587 54.407 7.417 402.844c-21.073 36.499 5.268 82.122 47.413 82.122h402.34c42.145 0 68.486-45.624 47.413-82.122L303.413 54.407c-21.072-36.498-73.754-36.498-94.826 0z" opacity="1" data-original="#da4a54" class=""></path><path fill="#fefefe" d="M54.83 443.76c-6.802 0-10.267-4.242-11.727-6.771s-3.401-7.65 0-13.542l201.17-348.436c3.401-5.891 8.807-6.771 11.727-6.771s8.326.88 11.727 6.771l201.17 348.436c3.401 5.891 1.46 11.013 0 13.541-1.46 2.529-4.925 6.771-11.727 6.771H54.83z" opacity="1" data-original="#f6e266" class=""></path><g fill="#544f57"><path d="M256 327.138c-14.379 0-26.036-11.657-26.036-26.036V181.886c0-14.379 11.657-26.036 26.036-26.036 14.379 0 26.036 11.657 26.036 26.036v119.217c0 14.379-11.657 26.035-26.036 26.035z" fill="#544f57" opacity="1" data-original="#544f57" class=""></path><circle cx="256" cy="381.152" r="26.036" fill="#544f57" opacity="1" data-original="#544f57" class=""></circle></g></g></svg>