<?xml version="1.0" encoding="utf-8"?>
<!-- Generator: Adobe Illustrator 17.0.0, SVG Export Plug-In . SVG Version: 6.00 Build 0)  -->
<!DOCTYPE svg PUBLIC "-//W3C//DTD SVG 1.1//EN" "http://www.w3.org/Graphics/SVG/1.1/DTD/svg11.dtd">
<svg version="1.1" id="Layer_1" xmlns="http://www.w3.org/2000/svg" xmlns:xlink="http://www.w3.org/1999/xlink" x="0px" y="0px"
	 width="128px" height="128px" viewBox="0 0 20 20" enable-background="new 0 0 20 20" xml:space="preserve">
<g>
	<path fill="#98683C" d="M15.949,10.168c0,0-1.138-1.917-3.335-1.225c0,0-1.391,0.353-2.216,0.765
		c-0.16,0.08-0.366,0.193-0.606,0.333c-0.353-0.1-0.812-0.266-1.205-0.532C8.454,9.229,8.021,8.437,7.01,7.605h0.007
		c0,0-0.213-0.885-0.419-1.151c-0.206-0.266-0.386-0.426,0-1.504L6.311,5.302c0,0-0.293,0.779,0,1.052
		c0.213,0.193,0.326,0.712,0.373,0.992C5.525,6.467,5.552,6.82,4.194,5.456H3.981c0,0,0.493,0.799,0.859,1.078
		c0,0,1.558,1.018,2.117,1.504C7.309,8.344,7.516,8.67,7.629,8.897C6.91,8.644,6.131,8.724,6.131,8.724s-1.185,0.033-1.97-0.539
		L3.369,7.612v0.186c0,0,0.319,0.473,0.719,0.732c0.166,0.106,0.399,0.24,0.699,0.353C4.44,8.937,3.935,9.036,3.622,9.15
		C3.109,9.336,2.251,8.943,2.251,8.943c0.592,0.493,1.118,0.499,1.118,0.499c0.586-0.213,1.83-0.433,1.83-0.433
		c0.353,0.093,0.759,0.153,1.218,0.133c1.112-0.033,1.518,0.799,2.157,1.018c0.206,0.073,0.366,0.186,0.486,0.313
		c-0.905,0.546-1.97,1.211-2.642,1.544c-0.093,0.047-0.213,0.106-0.339,0.18c-0.206-0.073-0.499-0.186-0.879-0.366
		c-0.832-0.393-1.83-0.359-2.656-0.466c-0.825-0.106-1.544-0.672-1.544-0.672l-0.413-0.379c-0.1-0.093-0.233-0.146-0.373-0.146
		c0,0,0.719,0.952,1.438,1.278c0.406,0.18,0.992,0.306,1.531,0.399c-0.266,0.186-0.672,0.439-0.932,0.466
		c-0.406,0.04-0.792-0.366-1.211-0.439c-0.126-0.02-0.233-0.007-0.326,0.02c-0.133,0.04-0.087,0.24,0.053,0.22
		c0.007,0,0.02,0,0.033-0.007c0.413-0.073,0.386,0.2,1.171,0.413s1.757-0.586,1.757-0.586c0.206,0.033,0.393,0.06,0.539,0.087
		c0.379,0.073,0.925,0.313,1.278,0.486c-1.384,0.825-3.468,2.196-3.468,2.196l-0.626,0.393c0,0-0.093,0.499,0.193,0.572
		c0.273,0.067,1.531-0.646,2.236-0.965c0.027,0.2,0.087,0.433,0.22,0.539c0.266,0.213,0.539,0.566,0.539,0.566s0.632,0.1,0.559-0.14
		c-0.073-0.24-0.586-0.406-0.772-0.592c-0.106-0.1-0.06-0.373,0-0.592c0.905-0.346,2.489-0.905,2.995-1.298
		c0.18-0.14,0.486-0.3,0.852-0.473c0.067,0.186,0.18,0.426,0.366,0.706c0.446,0.666,0.213,1.058,0.326,1.378
		c0.113,0.319-0.952,0.759-0.952,0.759s-0.166-0.186-0.519-0.506c-0.359-0.319-0.433-0.286-1.112,0.073
		c-0.679,0.359-0.752,0.546-0.752,0.546c0.539,0.073,0.752-0.433,1.258-0.506c0.339-0.047,0.639,0.399,0.799,0.706
		c0.08,0.14,0.253,0.193,0.393,0.113C8.454,15.772,9.1,15.406,9.253,15.3c0.213-0.146,0.173-0.859,0.173-0.859
		c0.313,0.146,0.759,1.078,0.759,1.078l0.22-0.213c0,0-0.612-1.325-1.151-1.884c-0.353-0.359-0.426-0.726-0.439-0.938
		c0.772-0.326,1.651-0.639,2.157-0.799c0.899-0.286,1.764-0.659,2.117-0.113c0.353,0.546,3.408,2.483,3.408,2.483L15.949,10.168z"/>
	<path fill="#A77143" d="M3.715,11.938c0.206,0.033,0.393,0.06,0.539,0.087c0.379,0.073,0.925,0.313,1.278,0.486
		c-1.384,0.825-3.468,2.196-3.468,2.196L1.439,15.1c0,0-0.033,0.173,0,0.333l4.273-2.17c0,0,6.117-3.621,7.208-3.102
		c0.666,0.313,2.183,1.185,3.275,1.824l-0.253-1.817c0,0-1.138-1.917-3.335-1.225c0,0-1.391,0.353-2.216,0.765
		c-0.16,0.08-0.366,0.193-0.606,0.333c-0.353-0.1-0.812-0.266-1.205-0.532c-0.133-0.28-0.566-1.072-1.577-1.904H7.01
		c0,0-0.213-0.885-0.419-1.151c-0.206-0.266-0.386-0.426,0-1.504L6.304,5.302c0,0-0.293,0.779,0,1.052
		C6.517,6.547,6.63,7.066,6.677,7.346C5.519,6.467,5.545,6.82,4.188,5.456H3.975c0,0,0.493,0.799,0.859,1.078
		c0,0,1.558,1.018,2.117,1.504C7.303,8.344,7.509,8.67,7.622,8.897C6.903,8.644,6.124,8.724,6.124,8.724S4.94,8.757,4.154,8.184
		L3.362,7.612v0.186c0,0,0.319,0.473,0.719,0.732C4.247,8.637,4.48,8.77,4.78,8.883C4.434,8.937,3.928,9.036,3.615,9.15
		C3.103,9.336,2.244,8.943,2.244,8.943c0.592,0.493,1.118,0.499,1.118,0.499c0.586-0.213,1.83-0.433,1.83-0.433
		c0.353,0.093,0.759,0.153,1.218,0.133c1.112-0.033,1.518,0.799,2.157,1.018c0.206,0.073,0.366,0.186,0.486,0.313
		c-0.905,0.546-1.97,1.211-2.642,1.544c-0.093,0.047-0.213,0.106-0.339,0.18c-0.206-0.073-0.499-0.186-0.879-0.366
		c-0.832-0.393-1.83-0.359-2.656-0.466c-0.825-0.106-1.544-0.672-1.544-0.672L0.58,10.314c-0.1-0.093-0.233-0.146-0.373-0.146
		c0,0,0.719,0.952,1.438,1.278c0.406,0.18,0.992,0.306,1.531,0.399c-0.266,0.186-0.672,0.439-0.932,0.466
		c-0.406,0.04-0.792-0.366-1.211-0.439c-0.126-0.02-0.233-0.007-0.326,0.02c-0.133,0.04-0.087,0.24,0.053,0.22
		c0.007,0,0.02,0,0.033-0.007c0.413-0.073,0.386,0.2,1.171,0.413C2.743,12.737,3.715,11.938,3.715,11.938L3.715,11.938z"/>
	<path fill="#C9974F" d="M13.659,9.842c0,0,0.446-0.24,1.005,0.353c0,0-0.153-0.712-0.652-1.052c0,0,0.546,0.146,0.892,0.792
		l0.406,0.879c0,0-0.2-1.364-0.646-2.043c-0.446-0.679,1.278,1.404,1.278,1.404v2.523L13.659,9.842z"/>
	<path fill="#AB8050" d="M19.357,17.396l-0.173-0.12c0,0-0.805-0.619-1.424-1.371c-0.619-0.752-1.105-3.741-1.238-4.493
		c-0.133-0.752-0.619-2.875-0.805-3.508c-0.186-0.626-0.213-2.017-0.213-2.017l-0.16,0.679l-0.08,1.158l-0.466-1.837l-0.539-1.604
		l0.406,2.203l-0.16-0.353l-0.353-0.699l0.213,0.998c0,0,0.406,1.884,0.752,2.822c0.353,0.938,0.379,3.068,0.379,3.068
		c-0.013-0.173-0.1-0.399-0.22-0.646l-1.112-1.711c-0.326-0.027-0.879-0.919-0.879-0.919l-0.726-1.331h-0.186l0.333,0.619
		c-0.153,0-1.085-0.266-1.085-0.266l0.406,0.699l-0.406-0.133c0,0,0.186,0.3,0.486,0.619c0.293,0.319,0.459,1.072,0.459,1.072
		l-0.486-0.406h-0.24c0,0,1.671,2.077,1.83,2.702c0.16,0.626,0.699,2.33,0.539,3.175c-0.106,0.559-0.572,1.018-0.879,1.271
		c-0.113,0.093-0.073,0.266,0.067,0.306c0.16,0.047,0.353,0.093,0.493,0.106c0.293,0.027,0.885-0.266,1.764-0.353
		c0.872-0.08,1.79,0,2.19,0.16c0.399,0.16,0.699,0.459,1.105,0.526c0.12,0.02,0.233,0.013,0.333-0.013
		C19.47,17.769,19.516,17.516,19.357,17.396L19.357,17.396z"/>
	<path fill="#9D6C40" d="M15.649,12.318c0,0,0.446,2.583,0.832,3.608s0.493,1.218,0.493,1.218s0.792,0.113,1.245,0.366
		c0.453,0.246,0.785,0.559,1.231,0.253c0,0,0.166-0.22-0.1-0.353c0,0-1.677-1.065-2.263-3.188c0,0-1.025-5.365-1.411-6.416
		l-0.18-1.917l-0.093,0.779l-0.067,1.058l-0.106,0.22l-0.566-1.278l-0.173-0.053l0.672,2.543l0.373,1.91L15.649,12.318z
		 M14.91,12.731l-0.799-2.236l0.666,0.839c0,0,0.719,1.265,0.879,2.037l-0.153-1.052c-0.013-0.173-0.1-0.399-0.22-0.646
		l-1.112-1.711c-0.326-0.027-0.879-0.919-0.879-0.919l-0.726-1.331h-0.186l0.333,0.619h-0.013l0.246,0.473L14.91,12.731z"/>
	<path fill="#AB8050" d="M14.731,6.993c-0.047-0.14-0.067-0.166-0.067-0.166L14.731,6.993z"/>
	<path fill="#E2BF88" d="M15.336,6.567l-0.08,1.158l-0.459-1.837l-0.539-1.604l0.406,2.203l-0.16-0.353l-0.353-0.699l0.213,0.998
		c0,0,0.406,1.884,0.752,2.822c0.353,0.938,0.379,3.068,0.379,3.068l0.153-0.007c0,0,0.106-1.544-0.379-3.428
		c-0.3-1.165-0.459-1.677-0.539-1.897l-0.067-0.166c0,0,0.02,0.027,0.067,0.166l0.506,1.218l0.16-0.446l0.106-1.684
		c-0.007-0.12-0.007-0.193-0.007-0.193L15.336,6.567z"/>
</g>
</svg>
