<svg xmlns="http://www.w3.org/2000/svg" version="1.1" xmlns:xlink="http://www.w3.org/1999/xlink" width="128" height="128" x="0" y="0" viewBox="0 0 500 500" style="enable-background:new 0 0 512 512" xml:space="preserve" class=""><g><path fill="#c5c6d2" d="M115.93 265.231v7.402c0 4.116-2.714 8.232-8.143 11.384-10.858 6.26-28.501 6.26-39.359 0-5.429-3.152-8.144-7.268-8.144-11.384v-7.402z" opacity="1" data-original="#aeb2f4" class=""></path><path fill="#abacb2" d="M107.791 276.61c-10.868 6.274-28.488 6.274-39.355-.001-10.868-6.274-10.868-16.447-.001-22.721 10.868-6.275 28.488-6.274 39.355 0 10.868 6.274 10.869 16.447.001 22.722z" opacity="1" data-original="#d7daff" class=""></path><path fill="#c5c6d2" d="m97.949 161.62.002 103.465c0 1.455-.96 2.91-2.879 4.025-3.839 2.213-10.077 2.213-13.916 0-1.92-1.115-2.879-2.57-2.879-4.025l-.003-103.465z" opacity="1" data-original="#aeb2f4" class=""></path><path fill="#3b4951" d="M97.949 147.88v21.795c0 1.455-.96 2.91-2.879 4.024-3.839 2.214-10.077 2.214-13.917 0-1.919-1.114-2.879-2.569-2.879-4.024V147.88z" opacity="1" data-original="#3b4951" class=""></path><path fill="#c5c6d2" d="m97.949 47.464.002 103.465c0 1.455-.96 2.91-2.879 4.024-3.839 2.214-10.077 2.214-13.916 0-1.92-1.114-2.879-2.569-2.879-4.024l-.003-103.465z" opacity="1" data-original="#aeb2f4" class=""></path><path fill="#3b4951" d="M97.949 30.674V52.47c0 1.455-.96 2.91-2.879 4.024-3.839 2.214-10.077 2.214-13.917 0-1.919-1.114-2.879-2.569-2.879-4.024V30.674z" opacity="1" data-original="#3b4951" class=""></path><path fill="#5d7280" d="M95.07 34.698c-3.842 2.218-10.072 2.218-13.915 0-3.842-2.218-3.842-5.816 0-8.034s10.072-2.218 13.915 0 3.843 5.815 0 8.034z" opacity="1" data-original="#5d7280" class=""></path><path fill="#cb0303" d="M408.688 273.04 93.436 91.029V77.285l315.252 182.01z" opacity="1" data-original="#e50000" class=""></path><path fill="#ed484f" d="M408.688 259.305 93.436 77.294l3.199-1.847 315.252 182.012z" opacity="1" data-original="#ed484f" class=""></path><path fill="#cb0303" d="M408.688 353.689 93.436 171.678v-13.744l315.252 182.01z" opacity="1" data-original="#e50000" class=""></path><path fill="#ed484f" d="M408.688 339.954 93.436 157.943l3.199-1.846 315.252 182.011z" opacity="1" data-original="#ed484f" class=""></path><path fill="#c5c6d2" d="M439.703 451.52v7.402c0 4.116-2.714 8.231-8.143 11.383-10.858 6.261-28.501 6.261-39.359 0-5.428-3.152-8.143-7.267-8.143-11.383v-7.402z" opacity="1" data-original="#aeb2f4" class=""></path><path fill="#abacb2" d="M431.564 462.898c-10.867 6.274-28.488 6.274-39.355-.001-10.868-6.274-10.868-16.448 0-22.722 10.867-6.274 28.488-6.274 39.355.001 10.868 6.274 10.868 16.447 0 22.722z" opacity="1" data-original="#d7daff" class=""></path><path fill="#c5c6d2" d="m421.722 347.909.002 103.465c0 1.455-.96 2.91-2.879 4.024-3.839 2.214-10.077 2.214-13.916 0-1.92-1.114-2.879-2.569-2.879-4.024l-.002-103.465z" opacity="1" data-original="#aeb2f4" class=""></path><path fill="#3b4951" d="M421.722 334.169v21.794c0 1.455-.96 2.91-2.879 4.025-3.839 2.213-10.077 2.213-13.916 0-1.92-1.115-2.879-2.57-2.879-4.025v-21.794z" opacity="1" data-original="#3b4951" class=""></path><path fill="#c5c6d2" d="m421.722 233.752.002 103.465c0 1.455-.96 2.91-2.879 4.024-3.839 2.214-10.077 2.214-13.916 0-1.92-1.114-2.879-2.569-2.879-4.024l-.002-103.465z" opacity="1" data-original="#aeb2f4" class=""></path><path fill="#3b4951" d="M421.722 216.963v21.794c0 1.455-.96 2.91-2.879 4.025-3.839 2.213-10.077 2.213-13.916 0-1.92-1.115-2.879-2.57-2.879-4.025v-21.794z" opacity="1" data-original="#3b4951" class=""></path><path fill="#5d7280" d="M418.843 220.986c-3.842 2.218-10.072 2.218-13.914-.001-3.843-2.218-3.843-5.815-.001-8.033 3.843-2.218 10.073-2.218 13.915 0 3.843 2.218 3.843 5.815 0 8.034z" opacity="1" data-original="#5d7280" class=""></path></g></svg>