<svg xmlns="http://www.w3.org/2000/svg" version="1.1" xmlns:xlink="http://www.w3.org/1999/xlink" width="128" height="128" x="0" y="0" viewBox="0 0 4335 4335" style="enable-background:new 0 0 512 512" xml:space="preserve" fill-rule="evenodd" class=""><g><path d="M1962 3570h-14c-462-95-776-303-934-617-265-522-22-1175 95-1432 151-342 310-484 628-692 24-17 56-14 77 11 21 21 21 53 7 78-3 3-243 345-243 758 99-318 349-550 480-656l74-57c359-285 469-370 585-917 4-24 25-42 50-46 24-3 49 4 63 25 14 18 325 459 346 734 14 77 35 268 14 458-14 103-50 205-85 307-42 113-81 219-81 314v46c88-173 208-356 342-388 18-4 39 0 53 11 14 10 25 28 25 45 0 92 14 896-78 1119-194 433-367 843-994 895-32 4-60-17-67-49-8-32 10-60 38-70 304-110 335-388 332-540-4-106-71-268-127-406-25-60-49-116-64-166-88-257-109-398-60-582-45 46-95 92-158 138-194 148-272 402-272 406-92 292 14 783 18 790 7 28-7 56-32 70s-56 7-74-17l-441-529c28 254 134 701 522 839 32 11 46 42 39 74-11 28-35 46-64 46zM3913 4335H421c-74 0-134-60-134-134v-289c0-70 60-134 134-134h3488c74 0 134 60 134 134v289c0 74-56 134-130 134zM2560 3660l1286-743c32-17 70-21 102-14 35 11 60 32 78 64l144 250c18 36 22 71 11 106-11 32-32 60-63 74l-455 263zM667 3660l-454-263c-28-14-53-46-60-81-11-35-4-71 14-102l145-251c14-28 46-53 81-60 35-10 70-3 102 14l1286 743z" fill="#000000" opacity="1" data-original="#000000" class=""></path></g></svg>