<?xml version="1.0" encoding="UTF-8" standalone="no"?>
<svg
   version="1.1"
   width="128"
   height="128"
   x="0"
   y="0"
   viewBox="0 0 206.56 206.56"
   style="enable-background:new 0 0 512 512"
   xml:space="preserve"
   class=""
   id="svg1"
   sodipodi:docname="horse3.svg"
   inkscape:version="1.3.2 (091e20e, 2023-11-25, custom)"
   xmlns:inkscape="http://www.inkscape.org/namespaces/inkscape"
   xmlns:sodipodi="http://sodipodi.sourceforge.net/DTD/sodipodi-0.dtd"
   xmlns="http://www.w3.org/2000/svg"
   xmlns:svg="http://www.w3.org/2000/svg"><defs
     id="defs1" /><sodipodi:namedview
     id="namedview1"
     pagecolor="#505050"
     bordercolor="#ffffff"
     borderopacity="1"
     inkscape:showpageshadow="0"
     inkscape:pageopacity="0"
     inkscape:pagecheckerboard="1"
     inkscape:deskcolor="#d1d1d1"
     inkscape:zoom="1.6894531"
     inkscape:cx="255.70405"
     inkscape:cy="256"
     inkscape:window-width="1920"
     inkscape:window-height="1057"
     inkscape:window-x="-8"
     inkscape:window-y="-8"
     inkscape:window-maximized="1"
     inkscape:current-layer="svg1" /><g
     id="g1"><path
       d="m197.201 8.347-1.011 10.125 8.104-8.438-3.038 14.183c4.392 4.731 4.049 23.628 4.049 23.628 4.729 23.631-5.414 23.968-5.414 23.968-9.451.334-9.451-11.142-9.451-11.142-8.104-3.715-10.468-12.486-10.468-12.486-.331 12.838-8.44 27.352-8.44 27.352-4.049 8.784 1.679 13.164 1.679 13.164 6.75 14.526-5.728 30.39-5.728 30.39 4.049 2.364 11.81 14.505 11.81 14.505 9.451 6.762 6.076 18.241 6.076 18.241-3.387 17.555-18.909 28.359-18.909 28.359-6.75 11.821-7.761 0-7.761 0 .337-11.81 8.778-8.098 8.778-8.098-.344-3.038 4.386-7.081 4.386-7.081 7.778-10.131 3.381-21.621 3.381-21.621-8.11-8.447-22.964-15.528-22.964-15.528.343 8.446-9.451 34.442-9.451 34.442-6.425 12.152-2.021 22.957-2.021 22.957 3.038 2.021 5.739 8.783 5.739 8.783.668 6.076-9.463 3.707-9.463 3.707-7.767 0-2.364-11.816-2.364-11.816-7.436-2.37-2.364-12.495-2.364-12.495 5.408-17.897 4.386-48.616 4.386-48.616-14.517 8.777-53.685-4.711-53.685-4.711 0 9.445-5.733 30.039-5.733 30.039-1.356 37.468 18.902 40.512 18.902 40.512 5.399 5.734-4.383 6.082-4.383 6.082-9.791 0-9.46-7.76-9.46-7.76-6.747 0-12.492-24.317-12.492-24.317-8.444-7.755-4.383-25.653-4.383-25.653-1.682-12.495-11.142-13.169-11.142-13.169-2.355 6.07-26.672 32.078-26.672 32.078-8.106 15.876-2.03 33.75-2.03 33.75 2.03 7.767-7.43 3.718-7.43 3.718-8.101-5.732-1.685-8.777-1.685-8.777 1.356-2.027-1.356-6.413-1.356-6.413-4.049-8.098 6.416-26.332 6.416-26.332 1.356-19.919 8.106-19.251 8.106-19.251 9.108-8.099 5.73-19.246 5.73-19.246-6.747-20.587 0-33.771 0-33.771-12.152 2.367-11.476 19.249-11.476 19.249C17.552 142.379 0 135.629 0 135.629c12.493-4.723 7.433-28.696 7.433-28.696 1.011-40.855 32.412-32.081 32.412-32.081C49.97 59.995 79.343 64.727 79.343 64.727c6.762 3.372 32.748 4.734 32.748 4.734 21.268-3.038 35.784-30.724 35.784-30.724 21.267-35.79 41.872-20.597 41.872-20.597l7.454-9.793z"
       fill="#000000"
       opacity="1"
       data-original="#000000"
       class=""
       id="path1" /></g></svg>
