<?xml version="1.0" encoding="utf-8"?>
<!-- Generator: Adobe Illustrator 17.0.0, SVG Export Plug-In . SVG Version: 6.00 Build 0)  -->
<!DOCTYPE svg PUBLIC "-//W3C//DTD SVG 1.1//EN" "http://www.w3.org/Graphics/SVG/1.1/DTD/svg11.dtd">
<svg version="1.1" xmlns="http://www.w3.org/2000/svg" xmlns:xlink="http://www.w3.org/1999/xlink" x="0px" y="0px" width="128px"
	 height="128px" viewBox="0 0 512 512" enable-background="new 0 0 512 512" xml:space="preserve">
<g id="Layer_1">
	<g>
		<path display="none" fill="#3B7AC8" d="M469.333,221.867c-0.006,86.424-52.125,164.316-132.011,197.291l-68.437,78.421
			c-6.181,7.116-16.96,7.875-24.076,1.694c-0.604-0.524-1.17-1.091-1.694-1.694l-68.437-78.421
			C65.753,374.244,13.862,249.534,58.775,140.61S228.398-20.206,337.323,24.707C417.186,57.638,469.307,135.481,469.333,221.867z"/>
		<path display="none" fill="#4E5156" d="M469.333,221.867c-0.006,86.424-52.125,164.316-132.011,197.291l-68.437,78.421
			c-6.181,7.116-16.96,7.875-24.076,1.694c-0.604-0.524-1.17-1.091-1.694-1.694l-68.437-78.421
			C65.753,374.244,13.862,249.534,58.775,140.61S228.398-20.206,337.323,24.707C417.186,57.638,469.307,135.481,469.333,221.867z"/>
		<path d="M469.333,221.867c-0.006,86.424-52.125,164.316-132.011,197.291l-68.437,78.421c-6.181,7.116-16.96,7.875-24.076,1.694
			c-0.604-0.524-1.17-1.091-1.694-1.694l-68.437-78.421C65.753,374.244,13.862,249.534,58.775,140.61S228.398-20.206,337.323,24.707
			C417.186,57.638,469.307,135.481,469.333,221.867z"/>
		<circle display="none" fill="#F9F9F9" cx="256" cy="221.867" r="170.667"/>
		<circle fill="#F9F9F9" cx="256" cy="221.867" r="177.334"/>
	</g>
</g>
<g id="Layer_3_copy">
	<g>
		<path fill="#D49B6B" d="M267.061,302.125l-2.274-0.03l93.594,26.155c-0.627-0.271-1.211-0.633-1.74-1.091L267.061,302.125z"/>
		<path fill="#D49B6B" d="M267.197,302.127l-0.136-0.002l89.58,25.034c-1.747-1.512-2.924-4.033-3.277-7.498
			c-1.014-9.962,5.158-23.93,13.788-31.2c5.07-4.271,9.858-5.275,13.152-3.361l0.219-0.473L259.78,250.848
			C255.893,270.15,259.614,290.928,267.197,302.127z"/>
		<path fill="#A46C41" d="M367.152,288.461c-8.63,7.27-14.803,21.238-13.788,31.2c0.353,3.465,1.531,5.985,3.277,7.498
			c0.529,0.459,1.113,0.821,1.74,1.091c3.254,1.404,7.727,0.262,12.446-3.714c8.63-7.27,14.802-21.238,13.787-31.201
			c-0.419-4.109-1.997-6.891-4.311-8.235C377.009,283.186,372.221,284.19,367.152,288.461z"/>
		<path d="M127.547,300.275l137.24,1.82l2.274,0.03l0.136,0.002c-7.582-11.199-11.303-31.977-7.417-51.279
			c3.305-16.411,12.108-31.754,28.727-39.233c0,0,17.708,30.448,43.581,35.015c0,0,1.263,31.35,33.729,16.042
			c8.663-4.073,12.88-23.12,5.097-35.843l-6.123-10.156c0,0-14.417-55.987-29.254-72.79c0,0-3.876-27.79,2.303-40.28
			c0,0-10.022,4.93-13.365,10.258c0,0,2.169-16.439,5.38-19.295c0,0-30.74,16.585-33.143,26.869c0,0-58.957-21.186-110.735,23.564
			c0,0,19.058-3.787,25.573-0.944c0,0-61.919,30.736-75.123,70.381c0,0,20.115-11.681,26.072-9.519c0,0-50.551,16.039-35.739,95.313
			L127.547,300.275z"/>
	</g>
	<path fill="none" stroke="#000000" stroke-width="2.6644" stroke-miterlimit="10" d="M328.673,248.162l-5.816,21.447
		c0,0-14.801,34.261-11.66,45.601c0.344,1.243,3.649,3.619,4.068,2.4c3.597-10.462,4.154-37.987,13.408-46.144
		c0.53-0.467,2.567-0.833,2.577-0.127c0.155,11.757-1.894,35.542-11.191,44.497c-1.76,1.695-6.089-0.544-8.448,0.095
		c-2.015,0.545-6.473,14.603-6.473,16.691"/>
</g>
</svg>
