<?xml version="1.0" encoding="utf-8"?>
<!-- Generator: Adobe Illustrator 17.0.0, SVG Export Plug-In . SVG Version: 6.00 Build 0)  -->
<!DOCTYPE svg PUBLIC "-//W3C//DTD SVG 1.1//EN" "http://www.w3.org/Graphics/SVG/1.1/DTD/svg11.dtd">
<svg version="1.1" xmlns="http://www.w3.org/2000/svg" xmlns:xlink="http://www.w3.org/1999/xlink" x="0px" y="0px" width="128px"
	 height="128px" viewBox="0 0 20 20" enable-background="new 0 0 20 20" xml:space="preserve">
<g id="svg2" xmlns:svg="http://www.w3.org/2000/svg" xmlns:rdf="http://www.w3.org/1999/02/22-rdf-syntax-ns#" xmlns:dc="http://purl.org/dc/elements/1.1/" xmlns:cc="http://creativecommons.org/ns#" xmlns:sodipodi="http://sodipodi.sourceforge.net/DTD/sodipodi-0.dtd" xmlns:inkscape="http://www.inkscape.org/namespaces/inkscape" inkscape:output_extension="org.inkscape.output.svg.inkscape" inkscape:version="0.47 r22583" sodipodi:docname="barrier_stile.svg" sodipodi:version="0.32" display="none">
	<defs  display="inline">
		
		
			<inkscape:perspective  inkscape:vp_z="580 : 290 : 1" inkscape:vp_y="0 : 1000 : 0" inkscape:vp_x="0 : 290 : 1" sodipodi:type="inkscape:persp3d" id="perspective24" inkscape:persp3d-origin="290 : 193.33333 : 1">
			</inkscape:perspective>
		
			<inkscape:perspective  inkscape:vp_z="612.164 : 306.58551 : 1" inkscape:vp_y="0 : 1000 : 0" inkscape:vp_x="0 : 306.58551 : 1" sodipodi:type="inkscape:persp3d" id="perspective2683" inkscape:persp3d-origin="306.082 : 204.39034 : 1">
			</inkscape:perspective>
		
			<inkscape:perspective  inkscape:vp_z="612.164 : 306.58551 : 1" inkscape:vp_y="0 : 1000 : 0" inkscape:vp_x="0 : 306.58551 : 1" sodipodi:type="inkscape:persp3d" id="perspective2953" inkscape:persp3d-origin="306.082 : 204.39034 : 1">
			</inkscape:perspective>
		
			<inkscape:perspective  inkscape:vp_z="361.87201 : 245.89301 : 1" inkscape:vp_y="0 : 1000 : 0" inkscape:vp_x="0 : 245.89301 : 1" sodipodi:type="inkscape:persp3d" id="perspective3071" inkscape:persp3d-origin="180.936 : 163.92867 : 1">
			</inkscape:perspective>
		
			<inkscape:perspective  inkscape:vp_z="1 : 0.5 : 1" inkscape:vp_y="0 : 1000 : 0" inkscape:vp_x="0 : 0.5 : 1" sodipodi:type="inkscape:persp3d" id="perspective3724" inkscape:persp3d-origin="0.5 : 0.33333333 : 1">
			</inkscape:perspective>
	</defs>
	
		<sodipodi:namedview  inkscape:cy="-18.59059" inkscape:cx="408.45204" inkscape:zoom="0.1767767" showgrid="false" pagecolor="#ffffff" bordercolor="#666666" guidetolerance="10.0" objecttolerance="10.0" gridtolerance="10.0" borderopacity="1.0" id="base" inkscape:window-maximized="0" inkscape:current-layer="svg2" inkscape:window-y="117" inkscape:window-x="271" inkscape:pageopacity="0.0" inkscape:pageshadow="2" inkscape:window-height="708" inkscape:window-width="770">
		</sodipodi:namedview>
	<g id="g1327" display="inline">
		<path id="path1329" fill="#111111" stroke="#EEEEEE" stroke-width="0.1178" d="M2.232,0.024C0.803,0.024,0,0.762,0,2.271v15.556
			c0,1.412,0.722,2.151,2.149,2.151h15.622c1.428,0,2.151-0.702,2.151-2.151V2.271c0-1.472-0.723-2.248-2.195-2.248
			C17.727,0.024,2.227,0.019,2.232,0.024z"/>
	</g>
	<g id="g2319" transform="translate(879.29125,36.805119)" display="inline">
		<path id="path2323" fill="#111111" stroke="#EEEEEE" stroke-width="0.1178" d="M-848.962-35.57"/>
	</g>
	<g id="g2325" transform="translate(879.29125,36.805119)" display="inline">
		<path id="path2329" fill="#111111" stroke="#EEEEEE" stroke-width="0.1178" d="M-848.962-35.57"/>
	</g>
	
		<path id="fence" sodipodi:nodetypes="csccccsssccccsssccccccccccccccccccccccccsssccccsssccccsssccccccscccccc" display="inline" opacity="0.75" fill="#FFFFFF" enable-background="new    " d="
		M3.317,4.745c-0.181,0.003-0.359,0.08-0.485,0.21c-0.126,0.13-0.198,0.311-0.195,0.491v0.691v0.306H2.315
		C2.087,6.44,1.859,6.531,1.696,6.691S1.439,7.078,1.439,7.307s0.095,0.455,0.257,0.616s0.391,0.252,0.619,0.248h0.322v2.611H2.315
		c-0.228-0.003-0.456,0.088-0.619,0.248s-0.257,0.387-0.257,0.616s0.095,0.455,0.257,0.616s0.391,0.252,0.619,0.248h0.322v1.599
		v0.691v0.691h1.382v-0.691V14.11V12.51h3.259v-0.97v-0.035v-0.035h6.061v1.039h2.983v1.599v0.691v0.691h1.382v-0.691V14.11V12.51
		h0.222c0.228,0.003,0.456-0.088,0.619-0.248c0.163-0.16,0.257-0.387,0.257-0.616s-0.095-0.455-0.257-0.616
		c-0.163-0.16-0.391-0.252-0.619-0.248h-0.222V8.171h0.222c0.228,0.003,0.456-0.088,0.619-0.248c0.163-0.16,0.257-0.387,0.257-0.616
		s-0.095-0.455-0.257-0.616c-0.163-0.16-0.391-0.252-0.619-0.248h-0.222V6.137V5.446c0.003-0.184-0.073-0.369-0.203-0.499
		c-0.13-0.13-0.315-0.205-0.499-0.202c-0.181,0.003-0.359,0.08-0.485,0.21c-0.126,0.13-0.198,0.311-0.195,0.491v0.691v0.306H4.019
		V6.137V5.446c0.003-0.184-0.073-0.369-0.203-0.499C3.686,4.817,3.502,4.742,3.317,4.745z M4.019,8.171h12.303v2.611H4.019V8.171z"
		/>
	<path id="path4403" display="inline" fill="none" stroke="#FFFFFF" stroke-width="1.728" stroke-linecap="square" d="M7.959,16.137
		h4.838"/>
	<path id="path4405" display="inline" fill="none" stroke="#FFFFFF" stroke-width="1.728" d="M8.246,13.303h4.125"/>
</g>
<g id="fence_1_">
	<path display="none" fill="#FFFFFF" d="M6.901,3.802h6.199v5.807H6.901V3.802z"/>
	<path display="none" fill="#3F3F3F" d="M12.906,6.116v3.493h-0.45V6.116H12.906z"/>
	<path display="none" fill="#3F3F3F" d="M7.544,6.116v3.493h-0.45V6.116H7.544z"/>
	<path display="none" fill="#FFFFFF" d="M0.702-2.043h18.597v17.422H0.702V-2.043z"/>
	<path display="none" fill="#3F3F3F" d="M18.717,4.899v10.48h-1.349V4.899H18.717z"/>
	<path display="none" fill="#3F3F3F" d="M2.631,4.899v10.48H1.282V4.899H2.631z"/>
	<path fill="#3F3F3F" d="M2.631,7.158h14.737v1.198H2.631V7.158z"/>
	<g display="none">
		<path display="inline" fill="#FFFFFF" d="M5.06,7.158h3.003v1.198H5.06V7.158z"/>
		<path display="inline" fill="#FFFFFF" d="M11.55,7.158h3.003v1.198H11.55V7.158z"/>
	</g>
	<path fill="#3F3F3F" d="M2.631,10.294h14.737v1.198H2.631V10.294z"/>
	<path fill="#3F3F3F" d="M17.368,15.492V5.205c0-0.427,0.302-0.305,0.674-0.305l0,0c0.372,0,0.674-0.122,0.674,0.305v10.287"/>
	<path fill="#3F3F3F" d="M1.283,15.492V5.205c0-0.427,0.302-0.305,0.674-0.305l0,0c0.372,0,0.674-0.122,0.674,0.305v10.287"/>
</g>
<g id="stairs_2">
	<rect x="5.965" y="14.514" fill="#4A4A4A" width="7.827" height="0.915"/>
	<polygon fill="#A3A3A3" points="6.632,13.599 13.125,13.599 13.675,14.209 6.083,14.209 	"/>
	<rect x="6.745" y="12.532" fill="#4A4A4A" width="6.268" height="0.762"/>
	<polygon fill="#A3A3A3" points="7.275,11.713 12.483,11.713 12.906,12.227 6.851,12.227 	"/>
	<g>
		<path fill="#292929" d="M7.067,11.466c-0.005,0.007-0.011,0.013-0.015,0.02l-0.593,0.82c-0.002,0.003-0.002,0.006-0.004,0.009
			c-0.002,0.004-0.004,0.008-0.005,0.013c-0.006,0.016-0.009,0.032-0.01,0.049c0,0.001-0.001,0.002-0.001,0.003v0.958
			c-0.009,0.009-0.018,0.02-0.024,0.031l-0.733,0.915c-0.003,0.004-0.004,0.009-0.006,0.013c-0.01,0.02-0.015,0.042-0.016,0.065
			l0,0.001v1.22c0,0.084,0.068,0.152,0.152,0.152h8.132c0.084,0,0.152-0.068,0.152-0.152v-1.22l0-0.001
			c0-0.022-0.006-0.045-0.016-0.065c-0.002-0.004-0.003-0.009-0.006-0.013l-0.733-0.915c-0.007-0.011-0.015-0.022-0.024-0.031V12.38
			c0-0.001-0.001-0.002-0.001-0.003c-0.001-0.017-0.004-0.033-0.01-0.049c-0.002-0.004-0.003-0.009-0.005-0.013
			c-0.002-0.003-0.002-0.007-0.004-0.009l-0.593-0.82c-0.004-0.008-0.01-0.014-0.015-0.02 M13.792,15.429H5.965v-0.915h7.827V15.429
			z M6.745,12.532h6.268v0.762H6.745V12.532z M7.275,11.713h5.208l0.423,0.515H6.851L7.275,11.713z M6.632,13.599h6.493l0.55,0.61
			H6.083L6.632,13.599z"/>
	</g>
</g>
<g id="stairs" display="none">
	<rect x="7.234" y="11.492" display="inline" fill="#FFFFFF" stroke="#292929" stroke-width="0.65" width="5.224" height="1.958"/>
	<rect x="6.518" y="13.371" display="inline" fill="#FFFFFF" stroke="#292929" stroke-width="0.65" width="6.721" height="1.899"/>
</g>
</svg>
