<?xml version="1.0" encoding="utf-8"?>
<!-- Generator: Adobe Illustrator 17.0.0, SVG Export Plug-In . SVG Version: 6.00 Build 0)  -->
<!DOCTYPE svg PUBLIC "-//W3C//DTD SVG 1.1//EN" "http://www.w3.org/Graphics/SVG/1.1/DTD/svg11.dtd">
<svg version="1.1" xmlns="http://www.w3.org/2000/svg" xmlns:xlink="http://www.w3.org/1999/xlink" x="0px" y="0px" width="128px"
	 height="128px" viewBox="0 0 512 512" enable-background="new 0 0 512 512" xml:space="preserve">
<g id="Layer_1">
	<g>
		<path d="M469.333,221.867c-0.006,86.424-52.125,164.316-132.011,197.291l-68.437,78.421c-6.181,7.116-16.96,7.875-24.076,1.694
			c-0.604-0.524-1.17-1.091-1.694-1.694l-68.437-78.421C65.753,374.244,13.862,249.534,58.775,140.61S228.398-20.206,337.323,24.707
			C417.186,57.638,469.307,135.481,469.333,221.867z"/>
		<circle fill="#F9F9F9" cx="256" cy="221.867" r="177.334"/>
	</g>
</g>
<g id="Layer_2">
	
		<path id="path7057_3_" fill="#2D2E30" stroke="#2D2E30" stroke-width="16.4426" stroke-linecap="round" stroke-linejoin="round" d="
		M120.395,165.714l135.575-56.971l135.575,56.971l-9.078,7.283l-45.325-14.945l-81.171-32.349l-81.455,32.238l-45.088,14.896
		L120.395,165.714z"/>
	<path id="path6" fill="#2D2E30" stroke="#4E5156" stroke-width="0.605" stroke-miterlimit="10" d="M164.862,270.781
		c32.336-44.502,72.863-52.685,110.899-68.358l16.826-22.309h5.607l-0.009,22.319c8.661,8.612,14.499,19.249,17.657,31.089
		c4.21,15.783,11.994,29.984,23.534,41.464c5.522,5.504,5.526,14.417,0.009,19.927l-5.001,4.968
		c-2.764,2.755-7.248,2.758-10.016,0.007c-0.002-0.002-0.004-0.004-0.007-0.007l-10.857-10.787
		c-17.497,4.665-35.519-5.682-40.21-23.124l-46.955,80.305"/>
</g>
</svg>
