<svg xmlns="http://www.w3.org/2000/svg" version="1.1" xmlns:xlink="http://www.w3.org/1999/xlink" width="128" height="128" x="0" y="0" viewBox="0 0 100 100" style="enable-background:new 0 0 512 512" xml:space="preserve" class=""><g><g fill-rule="evenodd" clip-rule="evenodd"><path d="M59.034 94.806a2.435 2.435 0 0 1-2.42 2.694H43.883a2.435 2.435 0 0 1-2.42-2.694l4.853-44.289a1.32 1.32 0 0 1 1.312-1.175h5.24a1.32 1.32 0 0 1 1.312 1.175zM54.455 34.335C54.354 20.141 52.428 2.5 50.095 2.5c-2.331 0-4.257 17.641-4.359 31.835 1.115-1.014 2.636-1.622 4.36-1.622 1.622 0 3.143.608 4.36 1.622zM43.506 39.303c0-.507.101-.912.101-1.318-12.268 7.199-26.563 17.641-25.448 19.669 1.115 2.028 17.439-5.17 29.808-12.166-2.535-.913-4.461-3.346-4.461-6.185zM56.483 37.985c.101.406.101.913.101 1.318a6.45 6.45 0 0 1-4.562 6.185c12.37 6.995 28.59 14.194 29.808 12.166 1.216-2.028-13.08-12.47-25.347-19.669zM46.142 39.303c0 2.13 1.723 3.954 3.954 3.954 2.129 0 3.954-1.723 3.954-3.954 0-2.129-1.724-3.954-3.954-3.954-2.13 0-3.954 1.724-3.954 3.954z" fill="#000000" opacity="1" data-original="#000000" class=""></path></g></g></svg>