<?xml version="1.0" encoding="utf-8"?>
<!-- Generator: Adobe Illustrator 17.0.0, SVG Export Plug-In . SVG Version: 6.00 Build 0)  -->
<!DOCTYPE svg PUBLIC "-//W3C//DTD SVG 1.1//EN" "http://www.w3.org/Graphics/SVG/1.1/DTD/svg11.dtd">
<svg version="1.1" id="Layer_1" xmlns="http://www.w3.org/2000/svg" xmlns:xlink="http://www.w3.org/1999/xlink" x="0px" y="0px"
	 width="128px" height="128px" viewBox="0 0 512 512" enable-background="new 0 0 512 512" xml:space="preserve">
<g>
	<path fill="#B40000" d="M208.587,54.407L7.417,402.844c-21.073,36.499,5.268,82.122,47.413,82.122h402.34
		c42.145,0,68.486-45.624,47.413-82.122L303.413,54.407C282.341,17.909,229.659,17.909,208.587,54.407z"/>
	<path fill="#FEFEFE" d="M54.83,443.76c-6.802,0-10.267-4.242-11.727-6.771s-3.401-7.65,0-13.542l201.17-348.436
		c3.401-5.891,8.807-6.771,11.727-6.771s8.326,0.88,11.727,6.771l201.17,348.436c3.401,5.891,1.46,11.013,0,13.541
		c-1.46,2.529-4.925,6.771-11.727,6.771L54.83,443.76L54.83,443.76z"/>
	<g>
		<path fill="#544F57" d="M256,327.138c-14.379,0-26.036-11.657-26.036-26.036V181.886c0-14.379,11.657-26.036,26.036-26.036
			c14.379,0,26.036,11.657,26.036,26.036v119.217C282.036,315.482,270.379,327.138,256,327.138z"/>
		<circle fill="#544F57" cx="256" cy="381.152" r="26.036"/>
	</g>
</g>
</svg>
