<?xml version="1.0" encoding="utf-8"?>
<!-- Generator: Adobe Illustrator 17.0.0, SVG Export Plug-In . SVG Version: 6.00 Build 0)  -->
<!DOCTYPE svg PUBLIC "-//W3C//DTD SVG 1.1//EN" "http://www.w3.org/Graphics/SVG/1.1/DTD/svg11.dtd">
<svg version="1.1" xmlns="http://www.w3.org/2000/svg" xmlns:xlink="http://www.w3.org/1999/xlink" x="0px" y="0px" width="128px"
	 height="128px" viewBox="0 0 512 512" enable-background="new 0 0 512 512" xml:space="preserve">
<g id="Layer_1">
	<g>
		<path fill="#469FD4" d="M360.916,239.975l-20.07,216.677c-0.96,10.893-10.108,19.232-21.042,19.183H216.197
			c-10.935,0.049-20.082-8.291-21.042-19.183l-20.071-216.677c-0.219-4.662,3.383-8.619,8.045-8.838
			c4.379-0.205,8.188,2.972,8.772,7.316l13.648,147.254c9.508,6.948,21.112,10.423,32.873,9.845
			c33.803,0,42.254-16.901,71.831-16.901c6.947-0.018,13.875,0.719,20.662,2.197l13.183-142.395
			c0.621-4.626,4.875-7.872,9.501-7.251C357.944,231.787,361.121,235.596,360.916,239.975L360.916,239.975z"/>
		<g>
			<path fill="#285680" d="M268,349.074"/>
			<path fill="#193F69" d="M360.916,239.975l-20.07,216.677c-0.96,10.893-10.108,19.232-21.042,19.183H216.197
				c-10.935,0.049-20.082-8.291-21.042-19.183l-20.071-216.677c-0.219-4.662,3.383-8.619,8.045-8.838
				c4.379-0.205,8.188,2.972,8.772,7.316l13.648,147.254l6.423,69.381c0.197,2.184,2.033,3.854,4.225,3.845h103.606
				c2.193,0.009,4.028-1.661,4.225-3.845l6.887-74.24l13.183-142.395c0.621-4.626,4.875-7.872,9.501-7.251
				C357.944,231.787,361.121,235.596,360.916,239.975L360.916,239.975z"/>
		</g>
		<path fill="#469FD4" d="M268,349.074c-21.511-0.551-38.52-18.405-38.028-39.917c0-24.085,20.789-42.735,34.128-75.681
			c0.796-2.154,3.187-3.255,5.341-2.459c1.139,0.421,2.038,1.319,2.459,2.459c13.339,32.945,34.128,51.583,34.128,75.681
			C306.52,330.67,289.511,348.523,268,349.074"/>
	</g>
	<g display="none">
		<path display="inline" d="M356.253,235.712c-1.424-1.579-3.45-2.481-5.577-2.48H185.332c-2.119,0-4.149,0.902-5.577,2.48
			c-1.423,1.574-2.116,3.675-1.909,5.787l22.547,225.469c0.387,3.843,3.623,6.767,7.486,6.764h120.25
			c3.863,0,7.095-2.916,7.471-6.764l22.547-225.469C358.373,239.387,357.684,237.28,356.253,235.712z M336.246,309.56
			c-19.105,6.178-43.966,9.034-63.477-6.974c-24.456-20.067-54.428-16.61-74.75-10.567l-4.374-43.756h148.719L336.246,309.56z"/>
	</g>
</g>
<g id="Layer_2">
	<g>
		<path fill="#193F69" d="M221.464,114.613l-2.953,0.031c-3.803,0.04-7.38-1.409-10.081-4.082
			c-2.701-2.673-4.189-6.238-4.189-10.037V71.14h-26.25v-17.5h43.75v-17.5h-43.75v-8.75h-17.5v8.75h-43.75v17.5h43.75v17.5h-26.25
			v27.221c0,9.115-7.415,16.529-16.529,16.529H35.578c0.494,2.615,0.744,5.271,0.747,7.933v45.385
			c-0.003,2.662-0.253,5.317-0.747,7.933h186.163c9.649,0,17.5,10.851,17.5,20.5v8.75h61.25v-8.75
			C300.491,153.064,265.04,114.613,221.464,114.613z"/>
	</g>
	<g id="Layer_5" display="none">
		<path display="inline" d="M53.392,108.39H37.991v96.25h15.401c14.023,0,25.433-11.409,25.433-25.433v-45.385
			C78.825,119.799,67.415,108.39,53.392,108.39z"/>
	</g>
	<g id="Layer_4" display="none">
		<path display="inline" d="M294.407,257.044c-8.216-11.137-23.083-27.208-23.083-27.208s-14.866,16.071-23.083,27.208
			c-11.944,16.189-17.751,28.624-17.751,38.012c0,22.516,18.318,40.833,40.833,40.833s40.833-18.318,40.833-40.833
			C312.158,285.668,306.352,273.234,294.407,257.044z"/>
	</g>
</g>
</svg>
