<?xml version="1.0" encoding="utf-8"?>
<!-- Generator: Adobe Illustrator 17.0.0, SVG Export Plug-In . SVG Version: 6.00 Build 0)  -->
<!DOCTYPE svg PUBLIC "-//W3C//DTD SVG 1.1//EN" "http://www.w3.org/Graphics/SVG/1.1/DTD/svg11.dtd">
<svg version="1.1" xmlns="http://www.w3.org/2000/svg" xmlns:xlink="http://www.w3.org/1999/xlink" x="0px" y="0px" width="128px"
	 height="128px" viewBox="0 0 20 20" enable-background="new 0 0 20 20" xml:space="preserve">
<g id="Layer_1_copy" display="none">
	<g display="inline">
		<path fill="#C5C6D2" d="M4.316,10.646v0.314c0,0.174-0.115,0.349-0.345,0.483c-0.46,0.265-1.208,0.265-1.669,0
			c-0.23-0.134-0.345-0.308-0.345-0.483v-0.314H4.316z"/>
		<path fill="#ABACB2" d="M3.971,11.128c-0.461,0.266-1.208,0.266-1.668,0c-0.461-0.266-0.461-0.697,0-0.963
			c0.461-0.266,1.208-0.266,1.668,0C4.432,10.431,4.432,10.862,3.971,11.128z"/>
		<path fill="#C5C6D2" d="M3.554,6.253l0,4.386c0,0.062-0.041,0.123-0.122,0.171c-0.163,0.094-0.427,0.094-0.59,0
			c-0.081-0.047-0.122-0.109-0.122-0.171l0-4.386H3.554z"/>
		<path fill="#3B4951" d="M3.554,5.671v0.924c0,0.062-0.041,0.123-0.122,0.171c-0.163,0.094-0.427,0.094-0.59,0
			C2.761,6.718,2.72,6.656,2.72,6.595V5.671H3.554z"/>
		<path fill="#C5C6D2" d="M3.554,1.414l0,4.386c0,0.062-0.041,0.123-0.122,0.171c-0.163,0.094-0.427,0.094-0.59,0
			C2.761,5.923,2.72,5.862,2.72,5.8l0-4.386L3.554,1.414z"/>
		<path fill="#3B4951" d="M3.554,0.702v0.924c0,0.062-0.041,0.123-0.122,0.171c-0.163,0.094-0.427,0.094-0.59,0
			C2.761,1.749,2.72,1.688,2.72,1.626V0.702H3.554z"/>
		<path fill="#5D7280" d="M3.432,0.873c-0.163,0.094-0.427,0.094-0.59,0c-0.163-0.094-0.163-0.247,0-0.341s0.427-0.094,0.59,0
			C3.595,0.626,3.595,0.778,3.432,0.873z"/>
		<path fill="#CB0303" d="M16.727,10.977L3.363,3.261V2.678l13.365,7.716L16.727,10.977z"/>
		<path fill="#ED484F" d="M16.727,10.394L3.363,2.678L3.498,2.6l13.365,7.716L16.727,10.394z"/>
		<path fill="#CB0303" d="M16.727,14.396L3.363,6.68V6.097l13.365,7.716L16.727,14.396z"/>
		<path fill="#ED484F" d="M16.727,13.813L3.363,6.097l0.136-0.078l13.365,7.716L16.727,13.813z"/>
		<path fill="#C5C6D2" d="M18.042,18.543v0.314c0,0.174-0.115,0.349-0.345,0.483c-0.46,0.265-1.208,0.265-1.669,0
			c-0.23-0.134-0.345-0.308-0.345-0.483v-0.314H18.042z"/>
		<path fill="#ABACB2" d="M17.697,19.025c-0.461,0.266-1.208,0.266-1.668,0c-0.461-0.266-0.461-0.697,0-0.963
			c0.461-0.266,1.208-0.266,1.668,0C18.158,18.328,18.158,18.759,17.697,19.025z"/>
		<path fill="#C5C6D2" d="M17.28,14.151l0,4.386c0,0.062-0.041,0.123-0.122,0.171c-0.163,0.094-0.427,0.094-0.59,0
			c-0.081-0.047-0.122-0.109-0.122-0.171l0-4.386H17.28z"/>
		<path fill="#3B4951" d="M17.28,13.568v0.924c0,0.062-0.041,0.123-0.122,0.171c-0.163,0.094-0.427,0.094-0.59,0
			c-0.081-0.047-0.122-0.109-0.122-0.171v-0.924H17.28z"/>
		<path fill="#C5C6D2" d="M17.28,9.311l0,4.386c0,0.062-0.041,0.123-0.122,0.171c-0.163,0.094-0.427,0.094-0.59,0
			c-0.081-0.047-0.122-0.109-0.122-0.171l0-4.386L17.28,9.311z"/>
		<path fill="#3B4951" d="M17.28,8.599v0.924c0,0.062-0.041,0.123-0.122,0.171c-0.163,0.094-0.427,0.094-0.59,0
			c-0.081-0.047-0.122-0.109-0.122-0.171V8.599H17.28z"/>
		<path fill="#5D7280" d="M17.158,8.77c-0.163,0.094-0.427,0.094-0.59,0c-0.163-0.094-0.163-0.247,0-0.341
			c0.163-0.094,0.427-0.094,0.59,0C17.321,8.523,17.321,8.676,17.158,8.77L17.158,8.77z"/>
	</g>
</g>
<g id="Layer_1">
	<g>
		<path fill="#C5C6D2" d="M3.227,12.876v0.314c0,0.174-0.115,0.349-0.345,0.483c-0.46,0.265-1.208,0.265-1.669,0
			c-0.23-0.134-0.345-0.308-0.345-0.483v-0.314H3.227z"/>
		<path fill="#ABACB2" d="M2.882,13.358c-0.461,0.266-1.208,0.266-1.668,0c-0.461-0.266-0.461-0.697,0-0.963
			c0.461-0.266,1.208-0.266,1.668,0C3.343,12.661,3.343,13.092,2.882,13.358z"/>
		<path fill="#C5C6D2" d="M2.465,8.483l0,4.386c0,0.062-0.041,0.123-0.122,0.171c-0.163,0.094-0.427,0.094-0.59,0
			c-0.081-0.047-0.122-0.109-0.122-0.171l0-4.386H2.465z"/>
		<path fill="#3B4951" d="M2.465,7.901v0.924c0,0.062-0.041,0.123-0.122,0.171c-0.163,0.094-0.427,0.094-0.59,0
			C1.672,8.948,1.631,8.886,1.631,8.825V7.901H2.465z"/>
		<path fill="#C5C6D2" d="M2.465,3.644l0,4.386c0,0.062-0.041,0.123-0.122,0.171c-0.163,0.094-0.427,0.094-0.59,0
			C1.672,8.153,1.631,8.092,1.631,8.03l0-4.386H2.465z"/>
		<path fill="#3B4951" d="M2.465,2.932v0.924c0,0.062-0.041,0.123-0.122,0.171c-0.163,0.094-0.427,0.094-0.59,0
			C1.672,3.979,1.631,3.918,1.631,3.856V2.932H2.465z"/>
		<path fill="#5D7280" d="M2.343,3.103c-0.163,0.094-0.427,0.094-0.59,0c-0.163-0.094-0.163-0.247,0-0.341
			c0.163-0.094,0.427-0.094,0.59,0C2.506,2.856,2.506,3.009,2.343,3.103z"/>
		<path fill="#CB0303" d="M17.772,10.317L2.274,5.491V4.908l15.498,4.826L17.772,10.317z"/>
		<path fill="#ED484F" d="M17.772,9.735L2.274,4.908L2.409,4.83l15.498,4.826L17.772,9.735z"/>
		<path fill="#CB0303" d="M17.772,13.736L2.274,8.91V8.327l15.498,4.826L17.772,13.736z"/>
		<path fill="#ED484F" d="M17.772,13.154L2.274,8.327l0.136-0.078l15.498,4.826L17.772,13.154z"/>
		<path fill="#C5C6D2" d="M19.086,17.884v0.314c0,0.174-0.115,0.349-0.345,0.483c-0.46,0.265-1.208,0.265-1.669,0
			c-0.23-0.134-0.345-0.308-0.345-0.483v-0.314H19.086z"/>
		<path fill="#ABACB2" d="M18.741,18.366c-0.461,0.266-1.208,0.266-1.668,0c-0.461-0.266-0.461-0.697,0-0.963
			c0.461-0.266,1.208-0.266,1.668,0C19.202,17.669,19.202,18.1,18.741,18.366z"/>
		<path fill="#C5C6D2" d="M18.324,13.491l0,4.386c0,0.062-0.041,0.123-0.122,0.171c-0.163,0.094-0.427,0.094-0.59,0
			c-0.081-0.047-0.122-0.109-0.122-0.171l0-4.386H18.324z"/>
		<path fill="#3B4951" d="M18.324,12.909v0.924c0,0.062-0.041,0.123-0.122,0.171c-0.163,0.094-0.427,0.094-0.59,0
			c-0.081-0.047-0.122-0.109-0.122-0.171v-0.924H18.324z"/>
		<path fill="#C5C6D2" d="M18.324,8.652l0,4.386c0,0.062-0.041,0.123-0.122,0.171c-0.163,0.094-0.427,0.094-0.59,0
			c-0.081-0.047-0.122-0.109-0.122-0.171l0-4.386L18.324,8.652z"/>
		<path fill="#3B4951" d="M18.324,7.94v0.924c0,0.062-0.041,0.123-0.122,0.171c-0.163,0.094-0.427,0.094-0.59,0
			c-0.081-0.047-0.122-0.109-0.122-0.171V7.94H18.324z"/>
		<path fill="#5D7280" d="M18.202,8.11c-0.163,0.094-0.427,0.094-0.59,0c-0.163-0.094-0.163-0.247,0-0.341
			c0.163-0.094,0.427-0.094,0.59,0C18.365,7.864,18.365,8.016,18.202,8.11L18.202,8.11z"/>
	</g>
</g>
</svg>
