<?xml version="1.0" encoding="utf-8"?>
<!-- Generator: Adobe Illustrator 17.0.0, SVG Export Plug-In . SVG Version: 6.00 Build 0)  -->
<!DOCTYPE svg PUBLIC "-//W3C//DTD SVG 1.1//EN" "http://www.w3.org/Graphics/SVG/1.1/DTD/svg11.dtd">
<svg version="1.1" id="Layer_2" xmlns="http://www.w3.org/2000/svg" xmlns:xlink="http://www.w3.org/1999/xlink" x="0px" y="0px"
	 width="128px" height="128px" viewBox="0 0 512 512" enable-background="new 0 0 512 512" xml:space="preserve">
<g>
	<g>
		<path display="none" fill="#FFFFFF" d="M514.044,513.044c-170.333,0-340.667,0-511,0c0-170.333,0-340.667,0-511
			c170.333,0,340.667,0,511,0C514.044,172.377,514.044,342.711,514.044,513.044z M489.676,257.881
			C491.36,131.628,388.844,25.345,258.062,25.455C130.119,25.562,26.976,126.756,26.39,257.164
			c-0.577,128.211,105.48,236.3,240.632,231.763C386.399,484.919,490.796,384.901,489.676,257.881z"/>
		<path fill="#B40000" d="M489.676,257.881c1.12,127.02-103.276,227.038-222.654,231.046
			C131.87,493.464,25.813,385.375,26.39,257.164C26.976,126.756,130.119,25.562,258.062,25.455
			C388.844,25.345,491.36,131.628,489.676,257.881z M428.953,258.158c2.029-91.59-72.126-172.693-171.239-172.254
			c-95.877,0.424-170.033,73.22-170.86,170.797c-0.827,97.571,79.404,172.851,173.99,171.679
			C350.989,427.263,430.584,350.319,428.953,258.158z"/>
	</g>
	<path fill="#FFFFFF" d="M428.953,258.158c1.63,92.161-77.964,169.105-168.109,170.222c-94.586,1.171-174.817-74.108-173.99-171.679
		c0.827-97.577,74.983-170.373,170.86-170.797C356.827,85.465,430.982,166.568,428.953,258.158z M241.882,371.909
		c-0.621-6.885-0.148-13.34-1.915-19.11c-6.325-20.65-13.409-41.067-19.654-59.908c22.444-1.242,44.339-2.575,66.251-3.452
		c1.909-0.076,4.599,2.454,5.798,4.452c5.418,9.03,9.923,18.643,15.762,27.374c4.077,6.097,3.39,10.95,0.1,16.817
		c-6.064,10.817-11.607,21.926-17.367,32.913c0.761,1.043,1.521,2.086,2.282,3.129c4.938-2.246,11.832-3.163,14.435-6.995
		c6.833-10.059,12.183-21.21,17.3-32.306c1.825-3.957,1.948-9.049,1.671-13.551c-0.524-8.496-1.901-16.94-3.221-27.875
		c11,8.647,19.49,15.93,28.623,22.289c6.292,4.38,7.562,9.294,6.11,16.487c-2.459,12.185-3.987,24.559-6.307,39.422
		c6.461-3.751,13.947-5.775,14.3-8.67c2.694-22.054,15.047-44.846-3.74-65.96c-3.83-4.304-8.11-11.058-7.411-16.009
		c2.106-14.929-0.336-28.246-10.96-43.114c8.719-1.919,15.441-5.17,21.606-4.33c8.627,1.175,11.984,9.091,13.519,17.234
		c1.107,5.872,2.234,11.74,3.372,17.716c19.25-6.511,19.527-6.99,14.703-24.095c-0.184-0.653-0.456-1.281-0.653-1.93
		c-7.58-24.964-34.206-32.195-52.764-13.981c-4.374,4.293-7.704,4.261-13.352,2.83c-8.245-2.089-17.069-2.224-25.666-2.453
		c-4.511-0.12-9.064,1.334-12.593,1.912c0.391-5.346,2.511-10.795,0.743-14.259c-7.389-14.472-15.02-29.003-24.387-42.219
		c-6.637-9.364-20.723-6.106-24.354,4.964c-1.525,4.649-0.254,10.215-0.254,16.42c-2.097,1.102-5.669,2.429-8.593,4.621
		c-8.674,6.502-14.038,3.921-18.782-5.131c-6.895-13.158-17.527-22.251-32.13-26.42c-8.073-2.305-15.993-5.149-23.681-7.651
		c0.011,21.307-21.872,30.002-30.266,47.025c3.378,6.942,8.818,7.411,15.488,5.515c6.529-1.856,13.22-3.213,19.906-4.415
		c2.526-0.454,6.922-0.803,7.6,0.406c5.086,9.067,11.291,18.115,13.561,27.992c2.554,11.116,1.358,23.093,1.885,37.131
		c-8.393,5.366-19.592,12.382-30.601,19.683c-2.355,1.562-5.679,4.114-5.741,6.291c-0.479,16.729-0.263,33.477-0.263,50.906
		c12.48-5.894,12.482-5.894,12.492-16.961c0.006-6.809-0.314-13.642,0.168-20.417c0.187-2.632,1.473-6.257,3.466-7.509
		c9.71-6.101,19.828-11.552,30.944-17.884c7.956,18.572,15.863,36.144,22.987,54.028c3.593,9.02,5.766,18.606,8.916,29.048
		C232.191,371.909,235.507,371.909,241.882,371.909z M245.405,166.26c8.901-0.262,15.454-7.137,14.964-15.7
		c-0.481-8.395-8.019-15.298-16.212-14.847c-8.167,0.449-14.847,8.129-14.412,16.57C230.162,160.393,237.012,166.507,245.405,166.26
		z"/>
	<g>
		<path d="M241.882,371.909c-6.375,0-9.69,0-10.67,0c-3.15-10.442-5.323-20.028-8.916-29.048
			c-7.123-17.884-15.03-35.456-22.987-54.028c-11.116,6.332-21.234,11.783-30.944,17.884c-1.992,1.252-3.278,4.877-3.466,7.509
			c-0.482,6.775-0.163,13.607-0.168,20.417c-0.01,11.067-0.011,11.067-12.492,16.961c0-17.429-0.216-34.178,0.263-50.906
			c0.062-2.177,3.386-4.729,5.741-6.291c11.009-7.301,22.209-14.317,30.601-19.683c-0.527-14.038,0.67-26.016-1.885-37.131
			c-2.27-9.877-8.475-18.925-13.561-27.992c-0.679-1.21-5.074-0.86-7.6-0.406c-6.687,1.202-13.377,2.558-19.906,4.415
			c-6.67,1.896-12.11,1.427-15.488-5.515c8.394-17.024,30.278-25.719,30.266-47.025c7.688,2.503,15.607,5.346,23.681,7.651
			c14.603,4.169,25.235,13.262,32.13,26.42c4.743,9.052,10.108,11.634,18.782,5.131c2.924-2.192,6.496-3.519,8.593-4.621
			c0-6.205-1.271-11.771,0.254-16.42c3.631-11.07,17.717-14.328,24.354-4.964c9.367,13.216,16.998,27.747,24.387,42.219
			c1.768,3.464-0.352,8.913-0.743,14.259c3.529-0.578,8.082-2.032,12.593-1.912c8.597,0.229,17.421,0.365,25.666,2.453
			c5.648,1.431,8.978,1.463,13.352-2.83c18.559-18.215,45.185-10.983,52.764,13.981c0.197,0.65,0.469,1.277,0.653,1.93
			c4.824,17.105,4.547,17.584-14.703,24.095c-1.138-5.976-2.266-11.844-3.372-17.716c-1.535-8.143-4.892-16.059-13.519-17.234
			c-6.165-0.84-12.887,2.41-21.606,4.33c10.623,14.868,13.065,28.186,10.96,43.114c-0.698,4.951,3.581,11.705,7.411,16.009
			c18.787,21.113,6.434,43.905,3.74,65.96c-0.354,2.895-7.839,4.919-14.3,8.67c2.32-14.863,3.848-27.236,6.307-39.422
			c1.452-7.193,0.182-12.107-6.11-16.487c-9.133-6.358-17.623-13.642-28.623-22.289c1.321,10.935,2.698,19.379,3.221,27.875
			c0.277,4.501,0.154,9.593-1.671,13.551c-5.116,11.096-10.466,22.247-17.3,32.306c-2.603,3.832-9.497,4.749-14.435,6.995
			c-0.761-1.043-1.521-2.086-2.282-3.129c5.76-10.987,11.303-22.096,17.367-32.913c3.289-5.867,3.976-10.72-0.1-16.817
			c-5.838-8.731-10.344-18.344-15.762-27.374c-1.198-1.997-3.889-4.528-5.798-4.452c-21.913,0.877-43.807,2.21-66.251,3.452
			c6.245,18.841,13.329,39.258,19.654,59.908C241.734,358.569,241.26,365.025,241.882,371.909z M252.696,205.798
			c-7.965,4.207-14.669,7.749-21.843,11.538c3.559,5.197,6.39,9.332,9.518,13.9c6.824-3.417,13.048-6.533,19.851-9.939
			C257.588,215.872,255.411,211.388,252.696,205.798z"/>
		<path d="M245.405,166.26c-8.393,0.247-15.244-5.867-15.661-13.977c-0.435-8.441,6.245-16.121,14.412-16.57
			c8.193-0.451,15.731,6.452,16.212,14.847C260.86,159.123,254.307,165.998,245.405,166.26z"/>
	</g>
	<path fill="#FFFFFF" d="M252.696,205.798c2.715,5.59,4.892,10.074,7.526,15.499c-6.803,3.406-13.027,6.522-19.851,9.939
		c-3.128-4.568-5.96-8.703-9.518-13.9C238.027,213.547,244.732,210.005,252.696,205.798z"/>
</g>
</svg>
