<?xml version="1.0" encoding="UTF-8" standalone="no"?>
<!-- Generator: Adobe Illustrator 17.0.0, SVG Export Plug-In . SVG Version: 6.00 Build 0)  -->

<svg
   version="1.1"
   x="0px"
   y="0px"
   width="128px"
   height="128px"
   viewBox="0 0 580 580"
   enable-background="new 0 0 580 580"
   xml:space="preserve"
   id="svg1"
   xmlns="http://www.w3.org/2000/svg"
   xmlns:svg="http://www.w3.org/2000/svg"><defs
   id="defs2" />
<g
   id="svg2"
   display="none">
	
		
	<defs
   display="inline"
   id="defs1">
		
		
			
		
			
		
			
		
			
	</defs>
	<g
   id="g1327"
   display="inline">
		<path
   id="path1329"
   fill="#111111"
   stroke="#EEEEEE"
   stroke-width="3.408"
   d="M66.275,1.768    c-41.335,0-64.571,21.371-64.571,65.036v450.123c0,40.844,20.895,62.229,62.192,62.229H515.92    c41.307,0,62.229-20.315,62.229-62.229V66.804c0-42.601-20.922-65.036-63.521-65.036C514.624,1.768,66.133,1.625,66.275,1.768z" />
	</g>
	
		<path
   id="path15803"
   display="inline"
   fill="none"
   stroke="#FFFFFF"
   stroke-width="19.2009"
   stroke-linecap="round"
   d="   M134.693,73.993L55.84,152.846" />
	
		<path
   id="path15805"
   display="inline"
   fill="none"
   stroke="#FFFFFF"
   stroke-width="19.2009"
   stroke-linecap="round"
   d="   M241.426,44.008l-78.853,78.853" />
	
		<path
   id="path15807"
   display="inline"
   fill="none"
   stroke="#FFFFFF"
   stroke-width="19.2009"
   stroke-linecap="round"
   d="   M114.626,184.102l-61.881,61.881" />
	
		<path
   id="path15809"
   display="inline"
   fill="none"
   stroke="#FFFFFF"
   stroke-width="19.2009"
   stroke-linecap="round"
   d="   M275.861,105.041l-78.853,78.853" />
	
		<path
   id="path15813"
   display="inline"
   fill="none"
   stroke="#FFFFFF"
   stroke-width="19.2009"
   stroke-linecap="round"
   d="   M456.757,87.944l-78.853,78.853" />
	
		<path
   id="path15815"
   display="inline"
   fill="none"
   stroke="#FFFFFF"
   stroke-width="19.2009"
   stroke-linecap="round"
   d="   M546.205,80.621l-58.346,56.224" />
	
		<path
   id="path15819"
   display="inline"
   fill="none"
   stroke="#FFFFFF"
   stroke-width="19.2009"
   stroke-linecap="round"
   d="   M548.327,157.796l-60.467,59.053" />
	
		<path
   id="path15821"
   display="inline"
   fill="none"
   stroke="#FFFFFF"
   stroke-width="19.2009"
   stroke-linecap="round"
   d="   M446.748,185.502l-27.232,25.11" />
	
		<path
   id="path15823"
   display="inline"
   fill="none"
   stroke="#FFFFFF"
   stroke-width="19.2009"
   stroke-linecap="round"
   d="   M353.965,119.468l-39.253,37.839" />
	
		<path
   id="path15825"
   display="inline"
   fill="none"
   stroke="#FFFFFF"
   stroke-width="19.2009"
   stroke-linecap="round"
   d="   M370.556,33.157l-46.324,47.739" />
	<g
   id="g5417"
   transform="matrix(0.8724801,0,0,0.8724801,43.27383,78.888966)"
   display="inline">
		
			<path
   id="path7057"
   fill="#FFFFFF"
   stroke="#FFFFFF"
   stroke-width="21.4587"
   stroke-linecap="round"
   stroke-linejoin="round"
   d="    M48.289,272.402L288.3,144.396l240.011,128.006l-16.07,16.364L432,256.401l-143.786-17.305L144.1,256.151l-79.82,32.255    L48.289,272.402z" />
		
			<rect
   id="rect7061"
   x="414.996"
   y="255.092"
   fill="#FFFFFF"
   stroke="#FFFFFF"
   stroke-width="22.6314"
   stroke-linecap="round"
   stroke-linejoin="round"
   width="30.829"
   height="258.642" />
		
			<rect
   id="rect2747"
   x="128.996"
   y="255.092"
   fill="#FFFFFF"
   stroke="#FFFFFF"
   stroke-width="22.6314"
   stroke-linecap="round"
   stroke-linejoin="round"
   width="30.829"
   height="258.642" />
	</g>
</g>
<g
   id="Layer_2">
	<g
   id="g5417_1_"
   transform="matrix(0.8724801,0,0,0.8724801,43.27383,78.888966)">
		
			<path
   id="path7057_1_"
   stroke="#000000"
   stroke-width="23.047"
   stroke-linecap="round"
   stroke-linejoin="round"
   d="    M25.011,188.844L282.787,51.363l257.776,137.481l-17.26,17.576l-86.18-34.761l-154.429-18.586l-154.782,18.317l-85.729,34.643    L25.011,188.844z" />
		
			<rect
   id="rect7061_1_"
   x="418.861"
   y="170.252"
   stroke="#000000"
   stroke-width="24.3066"
   stroke-linecap="round"
   stroke-linejoin="round"
   width="33.111"
   height="277.786" />
		
			<rect
   id="rect2747_1_"
   x="111.692"
   y="170.252"
   stroke="#000000"
   stroke-width="24.3066"
   stroke-linecap="round"
   stroke-linejoin="round"
   width="33.111"
   height="277.786" />
	</g>
</g>
</svg>
