<?xml version="1.0" encoding="utf-8"?>
<!-- Generator: Adobe Illustrator 17.0.0, SVG Export Plug-In . SVG Version: 6.00 Build 0)  -->
<!DOCTYPE svg PUBLIC "-//W3C//DTD SVG 1.1//EN" "http://www.w3.org/Graphics/SVG/1.1/DTD/svg11.dtd">
<svg version="1.1" id="Layer_1" xmlns="http://www.w3.org/2000/svg" xmlns:xlink="http://www.w3.org/1999/xlink" x="0px" y="0px"
	 width="128px" height="128px" viewBox="0 0 512 512" enable-background="new 0 0 512 512" xml:space="preserve">
<g>
	<path fill="#4482C3" d="M326.16,248.176c-2.593,11.22-8.082,21.564-15.92,30c74.64,8.24,121.76,34,121.76,69.12
		c0,43.04-70.72,72-176,72c-4.418,0-8-3.582-8-8s3.582-8,8-8c105.04,0,160-28.16,160-56c0-24.4-42.32-49.12-123.76-54.8
		c-22.501,12.553-49.899,12.553-72.4,0C138.4,298.176,96,322.816,96,347.296c0,4.418-3.582,8-8,8s-8-3.582-8-8
		c0-35.12,47.12-60.88,121.76-69.12c-2.147-2.337-4.125-4.823-5.92-7.44c-4.76-6.803-8.156-14.464-10-22.56
		C94.64,261.216,32,299.456,32,347.296c2.872,137.808,445.2,137.744,448,0C480,299.456,417.36,261.216,326.16,248.176z M120,347.296
		c0-33.04,74-40,136-40c4.418,0,8,3.582,8,8s-3.582,8-8,8c-159.68,0.896-159.656,47.096,0,48c97.92,0,120-17.76,120-24
		c0-4.418,3.582-8,8-8s8,3.582,8,8c0,33.04-74,40-136,40S120,380.336,120,347.296z"/>
	<path fill="#4482C3" d="M312,232.816c0-26.72-44.48-88-49.52-94.88c-2.854-3.579-8.068-4.167-11.647-1.313
		c-0.485,0.387-0.926,0.827-1.313,1.313c-5.04,6.88-49.52,68.16-49.52,94.88C202.464,302.992,309.52,303.008,312,232.816
		L312,232.816z M424,129.296c0-18.24-27.92-57.2-33.52-64.8c-2.854-3.579-8.068-4.167-11.647-1.313
		c-0.485,0.387-0.926,0.827-1.313,1.313c-5.6,7.6-33.52,46.56-33.52,64.8C345.6,179.616,422.4,179.608,424,129.296L424,129.296z
		 M168,129.296c0-18.24-27.92-57.2-33.52-64.8c-2.854-3.579-8.068-4.167-11.647-1.313c-0.485,0.387-0.926,0.827-1.313,1.313
		c-5.6,7.6-33.52,46.56-33.52,64.8C89.6,179.616,166.4,179.608,168,129.296z"/>
</g>
</svg>
